# xmcd
#
# Track frame offsets: 
#        150
#        16303
#        36442
#        56365
#        74518
#        89896
#        112549
#        132682
#        157241
#        174674
#        194087
#        212473
#        234376
#        257779
#
# Disc length: 3627 seconds
#
# Revision: 0
# Processed by: cddbd v1.5.2PL0 Copyright (c) Steve Scherf et al.
# Submitted via: ExactAudioCopy v0.99pb5
#
DISCID=d00e290e
DTITLE=i fiò dla nebia - festa
DYEAR=2008
DGENRE=Country
TTITLE0=Ves pès
TTITLE1=Fèsta
TTITLE2=Malabroca
TTITLE3=Frega e risenta
TTITLE4=Mundina
TTITLE5=Comunque 2 (la Vendetta)
TTITLE6=Can da Cacia
TTITLE7=Teodote
TTITLE8=Gh'era l'ultim di' 'd fera
TTITLE9=Roda da fiò
TTITLE10=Pidlina
TTITLE11=Scapa fiò scapa
TTITLE12=Al Nico e la Tata
TTITLE13=La Verzine e o' Piccirillo
EXTD=
EXTT0=Ves pès
EXTT1=
EXTT2=
EXTT3=
EXTT4=
EXTT5=
EXTT6=
EXTT7=
EXTT8=
EXTT9=
EXTT10=
EXTT11=
EXTT12=
EXTT13=
PLAYORDER=
